<svg id="Layer_1" data-name="Layer 1" xmlns="http://www.w3.org/2000/svg" viewBox="0 0 800 800"><defs><style>.cls-1{fill:#333;}</style></defs>
<title>icones</title><path class="cls-1" d="M367.91,39.71C180.6,39.71,28.76,191.55,28.76,378.84S180.6,718,367.91,718a338.37,338.37,0,0,0,131.73-26.51,342.87,342.87,0,0,0,32.75-16c3-1.64,5.86-3.31,8.73-5A340.93,340.93,0,0,0,651.69,564.58a334.46,334.46,0,0,0,18.45-31.81c.35-.65.66-1.29,1-1.93a337.52,337.52,0,0,0,35.9-152C707,191.55,555.2,39.71,367.91,39.71Zm-.15,582C233.64,621.7,124.91,513,124.91,378.85S233.64,136,367.76,136,610.61,244.73,610.61,378.85,501.88,621.7,367.76,621.7Z"/><path class="cls-1" d="M747.8,734.6c-39.85,39.86-105.07,39.86-144.92,0l-50.8-50.8A340.83,340.83,0,0,0,662.65,577.92a332,332,0,0,0,18.45-31.81s43.23,42.93,57.43,57.44C806.26,672.74,747.8,734.6,747.8,734.6Z"/></svg>