<svg id="Layer_1" data-name="Layer 1" xmlns="http://www.w3.org/2000/svg" viewBox="0 0 800 800"><defs><style>.cls-1{fill:#666;}.cls-2{fill:#707070;}</style></defs><title>icones</title><g id="União_19" data-name="União 19"><path class="cls-1" d="M80.06,692.36a65.46,65.46,0,0,1,0-130.91H719.92a65.46,65.46,0,1,1,0,130.91Zm0-226.91a65.46,65.46,0,0,1,0-130.91H719.92a65.46,65.46,0,1,1,0,130.91Zm0-226.9A65.45,65.45,0,0,1,14.6,173.11v0a65.45,65.45,0,0,1,65.45-65.45H719.92a65.45,65.45,0,0,1,65.45,65.45h0a65.45,65.45,0,0,1-65.43,65.46H80.06Z"/><path class="cls-2" d="M719.92,692.36H80.06a65.46,65.46,0,0,1,0-130.91H719.92a65.46,65.46,0,1,1,0,130.91Zm0-226.91H80.06a65.46,65.46,0,0,1,0-130.91H719.92a65.46,65.46,0,1,1,0,130.91Zm0-226.9H80.06a65.46,65.46,0,0,1,0-130.91H719.92a65.46,65.46,0,1,1,0,130.91Z"/></g></svg>